SplineFontDB: 3.0
FontName: Vain-Regular
FullName: Vain Regular
FamilyName: Vain
Weight: 400
Copyright: Copyright 2015, Sungsit Sawaiwan (https://fontuni.com | uni@fontuni.com). This Font Software is licensed under the SIL Open Font License, Version 1.1 (http://scripts.sil.org/OFL).
Version: 1.0-beta1
ItalicAngle: -9
UnderlinePosition: -60
UnderlineWidth: 30
Ascent: 960
Descent: 240
InvalidEm: 0
UFOAscent: 960
UFODescent: -240
LayerCount: 4
Layer: 0 0 "Back" 1
Layer: 1 0 "Fore" 0
Layer: 2 0 "Regular" 0
Layer: 3 0 "Italic" 0
PreferredKerning: 4
StyleMap: 0x0040
FSType: 0
OS2Version: 0
OS2_WeightWidthSlopeOnly: 0
OS2_UseTypoMetrics: 0
CreationTime: 1424010032
ModificationTime: 1438436173
PfmFamily: 81
TTFWeight: 400
TTFWidth: 5
LineGap: 0
VLineGap: 0
OS2TypoAscent: 1320
OS2TypoAOffset: 0
OS2TypoDescent: -480
OS2TypoDOffset: 0
OS2TypoLinegap: 0
OS2WinAscent: 1320
OS2WinAOffset: 0
OS2WinDescent: 480
OS2WinDOffset: 0
HheadAscent: 1320
HheadAOffset: 0
HheadDescent: -480
HheadDOffset: 0
OS2CapHeight: 840
OS2Vendor: 'FUni'
MarkAttachClasses: 1
DEI: 91125
LangName: 1033
Encoding: Custom
Compacted: 1
UnicodeInterp: none
NameList: AGL For New Fonts
DisplaySize: -48
DisplayLayer: 2
AntiAlias: 1
FitToEm: 0
BeginPrivate: 6
BlueValues 31 [-240 -240 0 0 600 600 840 840]
StemSnapH 12 [60 180 600]
StemSnapV 8 [60 600]
StdHW 5 [180]
StdVW 5 [600]
OtherBlues 57 [-480 -480 660 660 900 900 1080 1080 1140 1140 1320 1320]
EndPrivate
TeXData: 1 0 0 346030 173015 115343 0 1048576 115343 783286 444596 497025 792723 393216 433062 380633 303038 157286 324010 404750 52429 2506097 1059062 262144
BeginChars: 26 26

StartChar: .notdef
Encoding: 1 -1 1
GlifName: _notdef
Width: 660
VWidth: 0
Flags: W
HStem: 0 60<90 570> 540 60<90 570>
VStem: 30 60<60 540> 570 60<60 540>
LayerCount: 4
Layer: 2
SplineSet
30 0 m 257
 30 600 l 257
 630 600 l 257
 630 0 l 257
 30 0 l 257
90 60 m 257
 570 60 l 257
 570 540 l 257
 90 540 l 257
 90 60 l 257
EndSplineSet
Layer: 3
SplineSet
-30 0 m 257
 65 600 l 257
 665 600 l 257
 570 0 l 257
 -30 0 l 257
40 60 m 257
 520 60 l 257
 596 540 l 257
 116 540 l 257
 40 60 l 257
EndSplineSet
EndChar

StartChar: cap
Encoding: 3 65 3
AltUni2: 000042.ffffffff.0 000043.ffffffff.0 000044.ffffffff.0 000045.ffffffff.0 000046.ffffffff.0 000047.ffffffff.0 000048.ffffffff.0 000049.ffffffff.0 00004a.ffffffff.0 00004b.ffffffff.0 00004c.ffffffff.0 00004d.ffffffff.0 00004e.ffffffff.0 00004f.ffffffff.0 000050.ffffffff.0 000051.ffffffff.0 000052.ffffffff.0 000053.ffffffff.0 000054.ffffffff.0 000055.ffffffff.0 000056.ffffffff.0 000057.ffffffff.0 000058.ffffffff.0 000059.ffffffff.0 00005a.ffffffff.0 0000c6.ffffffff.0 0000d0.ffffffff.0 0000d8.ffffffff.0 0000de.ffffffff.0 000110.ffffffff.0 000126.ffffffff.0 000132.ffffffff.0 00013d.ffffffff.0 00013f.ffffffff.0 000141.ffffffff.0 000152.ffffffff.0 000166.ffffffff.0 000181.ffffffff.0 000182.ffffffff.0 000186.ffffffff.0 000187.ffffffff.0 000189.ffffffff.0 00018a.ffffffff.0 00018e.ffffffff.0 00018f.ffffffff.0 000190.ffffffff.0 000193.ffffffff.0 000198.ffffffff.0 00019c.ffffffff.0 00019f.ffffffff.0 0001a0.ffffffff.0 0001a2.ffffffff.0 0001a4.ffffffff.0 0001a7.ffffffff.0 0001a9.ffffffff.0 0001ac.ffffffff.0 0001af.ffffffff.0 0001b1.ffffffff.0 0001b2.ffffffff.0 0001b3.ffffffff.0 0001b5.ffffffff.0 0001b7.ffffffff.0 0001b8.ffffffff.0 0001bb.ffffffff.0 0001bc.ffffffff.0 0001c4.ffffffff.0 0001c5.ffffffff.0 0001c7.ffffffff.0 0001ca.ffffffff.0 0001e4.ffffffff.0 0001f1.ffffffff.0 0001f2.ffffffff.0 0001f6.ffffffff.0 000222.ffffffff.0 00023a.ffffffff.0 00023b.ffffffff.0 00023d.ffffffff.0 00023e.ffffffff.0 000241.ffffffff.0 000243.ffffffff.0 000244.ffffffff.0 000245.ffffffff.0 000246.ffffffff.0 00024c.ffffffff.0 00024e.ffffffff.0 000298.ffffffff.0 0003a9.ffffffff.0 0003b8.ffffffff.0 0003bb.ffffffff.0 000e3f.ffffffff.0 001e9e.ffffffff.0 001efa.ffffffff.0 001efc.ffffffff.0 001efe.ffffffff.0 002c62.ffffffff.0 002c63.ffffffff.0 002c64.ffffffff.0 002c6d.ffffffff.0 002c6e.ffffffff.0 002c6f.ffffffff.0 002c70.ffffffff.0 002c72.ffffffff.0 00a78d.ffffffff.0 00a7aa.ffffffff.0 00a7ad.ffffffff.0 00a7b0.ffffffff.0 00a7b1.ffffffff.0 00a7b2.ffffffff.0 00a7b4.ffffffff.0 00a7b6.ffffffff.0
GlifName: cap
Width: 660
VWidth: 0
Flags: W
HStem: 0 21G<30 630> 820 20G<30 630>
VStem: 30 600<0 840>
LayerCount: 4
Layer: 2
SplineSet
30 0 m 257
 30 840 l 257
 630 840 l 257
 630 0 l 257
 30 0 l 257
EndSplineSet
Layer: 3
SplineSet
-30 0 m 257
 103 840 l 257
 703 840 l 257
 570 0 l 257
 -30 0 l 257
EndSplineSet
EndChar

StartChar: cap.blw
Encoding: 4 199 4
AltUni2: 000104.ffffffff.0 000118.ffffffff.0 000122.ffffffff.0 00012e.ffffffff.0 000136.ffffffff.0 00013b.ffffffff.0 000145.ffffffff.0 000156.ffffffff.0 00015e.ffffffff.0 000162.ffffffff.0 000172.ffffffff.0 0001ea.ffffffff.0 000218.ffffffff.0 00021a.ffffffff.0 000228.ffffffff.0 001e00.ffffffff.0 001e04.ffffffff.0 001e06.ffffffff.0 001e0c.ffffffff.0 001e0e.ffffffff.0 001e10.ffffffff.0 001e12.ffffffff.0 001e18.ffffffff.0 001e1a.ffffffff.0 001e24.ffffffff.0 001e28.ffffffff.0 001e2a.ffffffff.0 001e2c.ffffffff.0 001e32.ffffffff.0 001e34.ffffffff.0 001e36.ffffffff.0 001e3a.ffffffff.0 001e3c.ffffffff.0 001e42.ffffffff.0 001e46.ffffffff.0 001e48.ffffffff.0 001e4a.ffffffff.0 001e5a.ffffffff.0 001e5e.ffffffff.0 001e62.ffffffff.0 001e6c.ffffffff.0 001e6e.ffffffff.0 001e70.ffffffff.0 001e72.ffffffff.0 001e74.ffffffff.0 001e76.ffffffff.0 001e7e.ffffffff.0 001e88.ffffffff.0 001e92.ffffffff.0 001e94.ffffffff.0 001ea0.ffffffff.0 001eb8.ffffffff.0 001eca.ffffffff.0 001ecc.ffffffff.0 001ee2.ffffffff.0 001ee4.ffffffff.0 001ef0.ffffffff.0 001ef4.ffffffff.0
GlifName: cap.blw
Width: 660
VWidth: 0
Flags: W
HStem: -240 180<30 630> 0 21G<30 630> 820 20G<30 630>
VStem: 30 600<-240 -60 0 840>
LayerCount: 4
Layer: 2
SplineSet
30 -240 m 257
 30 -60 l 257
 630 -60 l 257
 630 -240 l 257
 30 -240 l 257
30 0 m 257
 30 840 l 257
 630 840 l 257
 630 0 l 257
 30 0 l 257
EndSplineSet
Layer: 3
SplineSet
-68 -240 m 257
 -40 -60 l 257
 560 -60 l 257
 532 -240 l 257
 -68 -240 l 257
-30 0 m 257
 103 840 l 257
 703 840 l 257
 570 0 l 257
 -30 0 l 257
EndSplineSet
EndChar

StartChar: cap.blw.abv
Encoding: 5 7688 5
AltUni2: 0001ec.ffffffff.0 001e1c.ffffffff.0 001e38.ffffffff.0 001e39.ffffffff.0 001e5c.ffffffff.0 001e68.ffffffff.0 001eac.ffffffff.0 001eb6.ffffffff.0 001ec6.ffffffff.0 001ed8.ffffffff.0
GlifName: cap.blw.abv
Width: 660
VWidth: 0
Flags: W
HStem: -240 180<30 630> 0 21G<30 630> 820 20G<30 630> 900 180<30 630>
VStem: 30 600<-240 -60 0 840 900 1080>
LayerCount: 4
Layer: 2
SplineSet
30 900 m 257
 30 1080 l 257
 630 1080 l 257
 630 900 l 257
 30 900 l 257
30 0 m 257
 30 840 l 257
 630 840 l 257
 630 0 l 257
 30 0 l 257
30 -240 m 257
 30 -60 l 257
 630 -60 l 257
 630 -240 l 257
 30 -240 l 257
EndSplineSet
Layer: 3
SplineSet
113 900 m 257
 141 1080 l 257
 741 1080 l 257
 713 900 l 257
 113 900 l 257
-30 0 m 257
 103 840 l 257
 703 840 l 257
 570 0 l 257
 -30 0 l 257
-68 -240 m 257
 -40 -60 l 257
 560 -60 l 257
 532 -240 l 257
 -68 -240 l 257
EndSplineSet
EndChar

StartChar: cap.abv
Encoding: 6 192 6
AltUni2: 0000c1.ffffffff.0 0000c2.ffffffff.0 0000c3.ffffffff.0 0000c4.ffffffff.0 0000c5.ffffffff.0 0000c8.ffffffff.0 0000c9.ffffffff.0 0000ca.ffffffff.0 0000cb.ffffffff.0 0000cc.ffffffff.0 0000cd.ffffffff.0 0000ce.ffffffff.0 0000cf.ffffffff.0 0000d1.ffffffff.0 0000d2.ffffffff.0 0000d3.ffffffff.0 0000d4.ffffffff.0 0000d5.ffffffff.0 0000d6.ffffffff.0 0000d9.ffffffff.0 0000da.ffffffff.0 0000db.ffffffff.0 0000dc.ffffffff.0 0000dd.ffffffff.0 000100.ffffffff.0 000102.ffffffff.0 000106.ffffffff.0 000108.ffffffff.0 00010a.ffffffff.0 00010c.ffffffff.0 00010e.ffffffff.0 000112.ffffffff.0 000114.ffffffff.0 000116.ffffffff.0 00011a.ffffffff.0 00011c.ffffffff.0 00011e.ffffffff.0 000120.ffffffff.0 000124.ffffffff.0 000128.ffffffff.0 00012a.ffffffff.0 00012c.ffffffff.0 000130.ffffffff.0 000134.ffffffff.0 000139.ffffffff.0 000143.ffffffff.0 000147.ffffffff.0 00014c.ffffffff.0 00014e.ffffffff.0 000150.ffffffff.0 000154.ffffffff.0 000158.ffffffff.0 00015a.ffffffff.0 00015c.ffffffff.0 000160.ffffffff.0 000164.ffffffff.0 000168.ffffffff.0 00016a.ffffffff.0 00016c.ffffffff.0 00016e.ffffffff.0 000170.ffffffff.0 000174.ffffffff.0 000176.ffffffff.0 000178.ffffffff.0 000179.ffffffff.0 00017b.ffffffff.0 00017d.ffffffff.0 0001cd.ffffffff.0 0001cf.ffffffff.0 0001d1.ffffffff.0 0001d3.ffffffff.0 0001e2.ffffffff.0 0001e6.ffffffff.0 0001e8.ffffffff.0 0001e9.ffffffff.0 0001ee.ffffffff.0 0001f4.ffffffff.0 0001f8.ffffffff.0 0001fc.ffffffff.0 0001fe.ffffffff.0 000200.ffffffff.0 000202.ffffffff.0 000204.ffffffff.0 000206.ffffffff.0 000208.ffffffff.0 00020a.ffffffff.0 00020c.ffffffff.0 00020e.ffffffff.0 000210.ffffffff.0 000212.ffffffff.0 000214.ffffffff.0 000216.ffffffff.0 00021e.ffffffff.0 00021f.ffffffff.0 000226.ffffffff.0 00022e.ffffffff.0 000232.ffffffff.0 001e02.ffffffff.0 001e0a.ffffffff.0 001e1e.ffffffff.0 001e20.ffffffff.0 001e22.ffffffff.0 001e26.ffffffff.0 001e30.ffffffff.0 001e3e.ffffffff.0 001e40.ffffffff.0 001e44.ffffffff.0 001e54.ffffffff.0 001e56.ffffffff.0 001e58.ffffffff.0 001e60.ffffffff.0 001e6a.ffffffff.0 001e7c.ffffffff.0 001e80.ffffffff.0 001e82.ffffffff.0 001e84.ffffffff.0 001e86.ffffffff.0 001e8a.ffffffff.0 001e8c.ffffffff.0 001e8e.ffffffff.0 001e90.ffffffff.0 001ea2.ffffffff.0 001eba.ffffffff.0 001ebc.ffffffff.0 001ec8.ffffffff.0 001ece.ffffffff.0 001eda.ffffffff.0 001edc.ffffffff.0 001ede.ffffffff.0 001ee0.ffffffff.0 001ee6.ffffffff.0 001ee8.ffffffff.0 001eea.ffffffff.0 001eec.ffffffff.0 001eee.ffffffff.0 001ef2.ffffffff.0 001ef6.ffffffff.0 001ef8.ffffffff.0 001e03.ffffffff.0 001e0b.ffffffff.0 001e1f.ffffffff.0 001e23.ffffffff.0 001e27.ffffffff.0 001e31.ffffffff.0 001e9b.ffffffff.0
GlifName: cap.abv
Width: 660
VWidth: 0
Flags: W
HStem: 0 21G<30 630> 820 20G<30 630> 900 180<30 630>
VStem: 30 600<0 840 900 1080>
LayerCount: 4
Layer: 2
SplineSet
30 900 m 257
 30 1080 l 257
 630 1080 l 257
 630 900 l 257
 30 900 l 257
30 0 m 257
 30 840 l 257
 630 840 l 257
 630 0 l 257
 30 0 l 257
EndSplineSet
Layer: 3
SplineSet
113 900 m 257
 141 1080 l 257
 741 1080 l 257
 713 900 l 257
 113 900 l 257
-30 0 m 257
 103 840 l 257
 703 840 l 257
 570 0 l 257
 -30 0 l 257
EndSplineSet
EndChar

StartChar: cap.abv.abv
Encoding: 7 469 7
AltUni2: 0001d7.ffffffff.0 0001d9.ffffffff.0 0001db.ffffffff.0 0001de.ffffffff.0 0001e0.ffffffff.0 0001fa.ffffffff.0 00022a.ffffffff.0 00022c.ffffffff.0 000230.ffffffff.0 001e14.ffffffff.0 001e16.ffffffff.0 001e2e.ffffffff.0 001e4c.ffffffff.0 001e4e.ffffffff.0 001e50.ffffffff.0 001e52.ffffffff.0 001e64.ffffffff.0 001e66.ffffffff.0 001e78.ffffffff.0 001e7a.ffffffff.0 001ea4.ffffffff.0 001ea6.ffffffff.0 001ea8.ffffffff.0 001eaa.ffffffff.0 001eae.ffffffff.0 001eb0.ffffffff.0 001eb2.ffffffff.0 001eb4.ffffffff.0 001ebe.ffffffff.0 001ec0.ffffffff.0 001ec2.ffffffff.0 001ec4.ffffffff.0 001ed0.ffffffff.0 001ed2.ffffffff.0 001ed4.ffffffff.0 001ed6.ffffffff.0
GlifName: cap.abv.abv
Width: 660
VWidth: 0
Flags: W
HStem: 0 21G<30 630> 820 20G<30 630> 900 180<30 630> 1140 180<30 630>
VStem: 30 600<0 840 900 1080 1140 1320>
LayerCount: 4
Layer: 2
SplineSet
30 1140 m 257
 30 1320 l 261
 630 1320 l 257
 630 1140 l 257
 30 1140 l 257
30 900 m 257
 30 1080 l 257
 630 1080 l 257
 630 900 l 257
 30 900 l 257
30 0 m 257
 30 840 l 257
 630 840 l 257
 630 0 l 257
 30 0 l 257
EndSplineSet
Layer: 3
SplineSet
151 1140 m 257
 179 1320 l 257
 779 1320 l 257
 751 1140 l 257
 151 1140 l 257
113 900 m 257
 141 1080 l 257
 741 1080 l 257
 713 900 l 257
 113 900 l 257
-30 0 m 257
 103 840 l 257
 703 840 l 257
 570 0 l 257
 -30 0 l 257
EndSplineSet
EndChar

StartChar: cap.desc
Encoding: 8 40 8
AltUni2: 000029.ffffffff.0 00005b.ffffffff.0 00005d.ffffffff.0 00007b.ffffffff.0 00007d.ffffffff.0 0000a7.ffffffff.0 0000a9.ffffffff.0 0000b6.ffffffff.0 0000fe.ffffffff.0 000191.ffffffff.0 000194.ffffffff.0 00019d.ffffffff.0 0001ae.ffffffff.0 0001c8.ffffffff.0 0001cb.ffffffff.0 0001f7.ffffffff.0 00021c.ffffffff.0 000220.ffffffff.0 000224.ffffffff.0 000248.ffffffff.0 00024a.ffffffff.0 000297.ffffffff.0 0003b2.ffffffff.0 00014a.ffffffff.0 002020.ffffffff.0 002021.ffffffff.0 00222b.ffffffff.0
GlifName: cap.desc
Width: 660
VWidth: 0
Flags: W
HStem: -240 21G<30 630> 820 20G<30 630>
VStem: 30 600<-240 840>
LayerCount: 4
Layer: 2
SplineSet
30 -240 m 257
 30 840 l 257
 630 840 l 257
 630 -240 l 257
 30 -240 l 257
EndSplineSet
Layer: 3
SplineSet
-68 -240 m 257
 103 840 l 257
 703 840 l 257
 532 -240 l 257
 -68 -240 l 257
EndSplineSet
EndChar

StartChar: small
Encoding: 9 97 9
AltUni2: 000063.ffffffff.0 000065.ffffffff.0 00006d.ffffffff.0 00006e.ffffffff.0 00006f.ffffffff.0 000072.ffffffff.0 000073.ffffffff.0 000074.ffffffff.0 000075.ffffffff.0 000076.ffffffff.0 000077.ffffffff.0 000078.ffffffff.0 00007a.ffffffff.0 0000e6.ffffffff.0 0000f8.ffffffff.0 000131.ffffffff.0 000138.ffffffff.0 000149.ffffffff.0 000153.ffffffff.0 000167.ffffffff.0 0001a1.ffffffff.0 0001a8.ffffffff.0 0001b0.ffffffff.0 0001b6.ffffffff.0 0001dd.ffffffff.0 000235.ffffffff.0 000236.ffffffff.0 00023c.ffffffff.0 000242.ffffffff.0 000247.ffffffff.0 00024d.ffffffff.0 000250.ffffffff.0 000251.ffffffff.0 000252.ffffffff.0 000254.ffffffff.0 000255.ffffffff.0 000258.ffffffff.0 000259.ffffffff.0 00025a.ffffffff.0 00025b.ffffffff.0 00025c.ffffffff.0 00025d.ffffffff.0 00025e.ffffffff.0 000262.ffffffff.0 000264.ffffffff.0 000268.ffffffff.0 000269.ffffffff.0 00026a.ffffffff.0 00026f.ffffffff.0 000274.ffffffff.0 000275.ffffffff.0 000276.ffffffff.0 000277.ffffffff.0 000279.ffffffff.0 00027e.ffffffff.0 00027f.ffffffff.0 000280.ffffffff.0 000281.ffffffff.0 000289.ffffffff.0 00028a.ffffffff.0 00028b.ffffffff.0 00028c.ffffffff.0 00028d.ffffffff.0 00028f.ffffffff.0 000291.ffffffff.0 000299.ffffffff.0 00029a.ffffffff.0 00029c.ffffffff.0 00029f.ffffffff.0 0002a6.ffffffff.0 0002a8.ffffffff.0 0002ac.ffffffff.0 0002ad.ffffffff.0 0003c0.ffffffff.0 0003c6.ffffffff.0 000e01.ffffffff.0 000e02.ffffffff.0 000e03.ffffffff.0 000e04.ffffffff.0 000e05.ffffffff.0 000e06.ffffffff.0 000e07.ffffffff.0 000e08.ffffffff.0 000e09.ffffffff.0 000e0a.ffffffff.0 000e0b.ffffffff.0 000e0c.ffffffff.0 000e0d.ffffffff.0 000e10.ffffffff.0 000e11.ffffffff.0 000e12.ffffffff.0 000e13.ffffffff.0 000e14.ffffffff.0 000e15.ffffffff.0 000e16.ffffffff.0 000e17.ffffffff.0 000e18.ffffffff.0 000e19.ffffffff.0 000e1a.ffffffff.0 000e1c.ffffffff.0 000e1e.ffffffff.0 000e20.ffffffff.0 000e21.ffffffff.0 000e22.ffffffff.0 000e23.ffffffff.0 000e25.ffffffff.0 000e27.ffffffff.0 000e28.ffffffff.0 000e29.ffffffff.0 000e2a.ffffffff.0 000e2b.ffffffff.0 000e2c.ffffffff.0 000e2d.ffffffff.0 000e2e.ffffffff.0 000e2f.ffffffff.0 000e30.ffffffff.0 000e32.ffffffff.0 000e33.ffffffff.0 000e40.ffffffff.0 000e41.ffffffff.0 000e4f.ffffffff.0 000e50.ffffffff.0 000e51.ffffffff.0 000e52.ffffffff.0 000e53.ffffffff.0 000e54.ffffffff.0 000e55.ffffffff.0 000e56.ffffffff.0 000e57.ffffffff.0 000e58.ffffffff.0 000e59.ffffffff.0 000e5a.ffffffff.0 000e5b.ffffffff.0 000e81.ffffffff.0 000e82.ffffffff.0 000e84.ffffffff.0 000e88.ffffffff.0 000e8d.ffffffff.0 000e94.ffffffff.0 000e95.ffffffff.0 000e97.ffffffff.0 000e99.ffffffff.0 000e9a.ffffffff.0 000e9c.ffffffff.0 000e9e.ffffffff.0 000ea1.ffffffff.0 000ea3.ffffffff.0 000ea5.ffffffff.0 000ea7.ffffffff.0 000eaa.ffffffff.0 000eab.ffffffff.0 000ead.ffffffff.0 000eae.ffffffff.0 000eb0.ffffffff.0 000eb2.ffffffff.0 000eb3.ffffffff.0 000ec0.ffffffff.0 000ec1.ffffffff.0 000ed0.ffffffff.0 000ed1.ffffffff.0 000ed2.ffffffff.0 000ed3.ffffffff.0 000ed4.ffffffff.0 000ed5.ffffffff.0 000ed6.ffffffff.0 000ed7.ffffffff.0 000ed8.ffffffff.0 000ed9.ffffffff.0 000edc.ffffffff.0 000edd.ffffffff.0 000ede.ffffffff.0 000edf.ffffffff.0 001d05.ffffffff.0 001d7b.ffffffff.0 001d7c.ffffffff.0 001d7d.ffffffff.0 002c71.ffffffff.0 002c73.ffffffff.0 00a7b5.ffffffff.0 00a7b7.ffffffff.0 00ab53.ffffffff.0
GlifName: small
Width: 660
VWidth: 0
Flags: W
HStem: 0 21G<30 630> 580 20G<30 630>
VStem: 30 600<0 600>
LayerCount: 4
Layer: 2
SplineSet
30 0 m 257
 30 600 l 257
 630 600 l 257
 630 0 l 257
 30 0 l 257
EndSplineSet
Layer: 3
SplineSet
-30 0 m 257
 65 600 l 257
 665 600 l 257
 570 0 l 257
 -30 0 l 257
EndSplineSet
EndChar

StartChar: small.blw
Encoding: 10 231 10
AltUni2: 000105.ffffffff.0 000119.ffffffff.0 000146.ffffffff.0 000157.ffffffff.0 00015f.ffffffff.0 000163.ffffffff.0 000173.ffffffff.0 0001eb.ffffffff.0 000219.ffffffff.0 00021b.ffffffff.0 000229.ffffffff.0 001e01.ffffffff.0 001e05.ffffffff.0 001e07.ffffffff.0 001e0d.ffffffff.0 001e0f.ffffffff.0 001e11.ffffffff.0 001e13.ffffffff.0 001e19.ffffffff.0 001e1b.ffffffff.0 001e25.ffffffff.0 001e29.ffffffff.0 001e2b.ffffffff.0 001e43.ffffffff.0 001e47.ffffffff.0 001e49.ffffffff.0 001e4b.ffffffff.0 001e5b.ffffffff.0 001e5f.ffffffff.0 001e63.ffffffff.0 001e6d.ffffffff.0 001e6f.ffffffff.0 001e71.ffffffff.0 001e73.ffffffff.0 001e75.ffffffff.0 001e77.ffffffff.0 001e7f.ffffffff.0 001e89.ffffffff.0 001e93.ffffffff.0 001e95.ffffffff.0 001ea1.ffffffff.0 001eb9.ffffffff.0 001ecd.ffffffff.0 001ee3.ffffffff.0 001ee5.ffffffff.0 001ef1.ffffffff.0 001ef5.ffffffff.0
GlifName: small.blw
Width: 660
VWidth: 0
Flags: W
HStem: -240 180<30 630> 0 21G<30 630> 580 20G<30 630>
VStem: 30 600<-240 -60 0 600>
LayerCount: 4
Layer: 2
SplineSet
30 -240 m 257
 30 -60 l 257
 630 -60 l 257
 630 -240 l 257
 30 -240 l 257
30 0 m 257
 30 600 l 257
 630 600 l 257
 630 0 l 257
 30 0 l 257
EndSplineSet
Layer: 3
SplineSet
-68 -240 m 257
 -40 -60 l 257
 560 -60 l 257
 532 -240 l 257
 -68 -240 l 257
-30 0 m 257
 65 600 l 257
 665 600 l 257
 570 0 l 257
 -30 0 l 257
EndSplineSet
EndChar

StartChar: small.blw.abv
Encoding: 11 303 11
AltUni2: 001e09.ffffffff.0 0001ed.ffffffff.0 001e1d.ffffffff.0 001e2d.ffffffff.0 001e5d.ffffffff.0 001e69.ffffffff.0 001ead.ffffffff.0 001eb7.ffffffff.0 001ec7.ffffffff.0 001ecb.ffffffff.0 001ed9.ffffffff.0
GlifName: small.blw.abv
Width: 660
VWidth: 0
Flags: W
HStem: -240 180<30 630> 0 21G<30 630> 580 20G<30 630> 660 180<30 630>
VStem: 30 600<-240 -60 0 600 660 840>
LayerCount: 4
Layer: 2
SplineSet
30 660 m 257
 30 840 l 257
 630 840 l 257
 630 660 l 257
 30 660 l 257
30 0 m 257
 30 600 l 257
 630 600 l 257
 630 0 l 257
 30 0 l 257
30 -240 m 257
 30 -60 l 257
 630 -60 l 257
 630 -240 l 257
 30 -240 l 257
EndSplineSet
Layer: 3
SplineSet
75 660 m 257
 103 840 l 257
 703 840 l 257
 675 660 l 257
 75 660 l 257
-30 0 m 257
 65 600 l 257
 665 600 l 257
 570 0 l 257
 -30 0 l 257
-68 -240 m 257
 -40 -60 l 257
 560 -60 l 257
 532 -240 l 257
 -68 -240 l 257
EndSplineSet
EndChar

StartChar: small.abv
Encoding: 12 105 12
AltUni2: 0000e0.ffffffff.0 0000e1.ffffffff.0 0000e2.ffffffff.0 0000e3.ffffffff.0 0000e4.ffffffff.0 0000e5.ffffffff.0 0000e8.ffffffff.0 0000e9.ffffffff.0 0000ea.ffffffff.0 0000eb.ffffffff.0 0000ec.ffffffff.0 0000ed.ffffffff.0 0000ee.ffffffff.0 0000ef.ffffffff.0 0000f1.ffffffff.0 0000f2.ffffffff.0 0000f3.ffffffff.0 0000f4.ffffffff.0 0000f5.ffffffff.0 0000f6.ffffffff.0 0000f9.ffffffff.0 0000fa.ffffffff.0 0000fb.ffffffff.0 0000fc.ffffffff.0 0000fd.ffffffff.0 0000ff.ffffffff.0 000101.ffffffff.0 000103.ffffffff.0 000107.ffffffff.0 000109.ffffffff.0 00010b.ffffffff.0 00010d.ffffffff.0 000113.ffffffff.0 000115.ffffffff.0 000117.ffffffff.0 00011b.ffffffff.0 00011d.ffffffff.0 00011f.ffffffff.0 000121.ffffffff.0 000123.ffffffff.0 000125.ffffffff.0 000129.ffffffff.0 00012b.ffffffff.0 00012d.ffffffff.0 000144.ffffffff.0 000148.ffffffff.0 00014d.ffffffff.0 00014f.ffffffff.0 000151.ffffffff.0 000155.ffffffff.0 000159.ffffffff.0 00015b.ffffffff.0 00015d.ffffffff.0 000161.ffffffff.0 000165.ffffffff.0 000169.ffffffff.0 00016b.ffffffff.0 00016d.ffffffff.0 00016f.ffffffff.0 000171.ffffffff.0 000175.ffffffff.0 000177.ffffffff.0 00017a.ffffffff.0 00017c.ffffffff.0 00017e.ffffffff.0 0001ce.ffffffff.0 0001d0.ffffffff.0 0001d2.ffffffff.0 0001d4.ffffffff.0 0001e3.ffffffff.0 0001e7.ffffffff.0 0001f5.ffffffff.0 0001f9.ffffffff.0 0001fd.ffffffff.0 0001ff.ffffffff.0 000201.ffffffff.0 000203.ffffffff.0 000205.ffffffff.0 000207.ffffffff.0 000209.ffffffff.0 00020b.ffffffff.0 00020d.ffffffff.0 00020f.ffffffff.0 000211.ffffffff.0 000213.ffffffff.0 000215.ffffffff.0 000217.ffffffff.0 000227.ffffffff.0 00022f.ffffffff.0 001e3f.ffffffff.0 001e41.ffffffff.0 001e45.ffffffff.0 001e59.ffffffff.0 001e61.ffffffff.0 001e6b.ffffffff.0 001e7d.ffffffff.0 001e81.ffffffff.0 001e83.ffffffff.0 001e85.ffffffff.0 001e87.ffffffff.0 001e8b.ffffffff.0 001e8d.ffffffff.0 001e8f.ffffffff.0 001e91.ffffffff.0 001e97.ffffffff.0 001e98.ffffffff.0 001e9a.ffffffff.0 001ea3.ffffffff.0 001ebb.ffffffff.0 001ebd.ffffffff.0 001ec9.ffffffff.0 001ecf.ffffffff.0 001edb.ffffffff.0 001edd.ffffffff.0 001edf.ffffffff.0 001ee1.ffffffff.0 001ee7.ffffffff.0 001ee9.ffffffff.0 001eeb.ffffffff.0 001eed.ffffffff.0 001eef.ffffffff.0
GlifName: small.abv
Width: 660
VWidth: 0
Flags: W
HStem: 0 21G<30 630> 580 20G<30 630> 660 180<30 630>
VStem: 30 600<0 600 660 840>
LayerCount: 4
Layer: 2
SplineSet
30 660 m 257
 30 840 l 257
 630 840 l 257
 630 660 l 257
 30 660 l 257
30 0 m 257
 30 600 l 257
 630 600 l 257
 630 0 l 257
 30 0 l 257
EndSplineSet
Layer: 3
SplineSet
75 660 m 257
 103 840 l 257
 703 840 l 257
 675 660 l 257
 75 660 l 257
-30 0 m 257
 65 600 l 257
 665 600 l 257
 570 0 l 257
 -30 0 l 257
EndSplineSet
EndChar

StartChar: small.abv.abv
Encoding: 13 470 13
AltUni2: 0001d8.ffffffff.0 0001da.ffffffff.0 0001dc.ffffffff.0 0001df.ffffffff.0 0001e1.ffffffff.0 0001fb.ffffffff.0 00022b.ffffffff.0 00022d.ffffffff.0 000231.ffffffff.0 001e15.ffffffff.0 001e17.ffffffff.0 001e2f.ffffffff.0 001e4d.ffffffff.0 001e4f.ffffffff.0 001e51.ffffffff.0 001e53.ffffffff.0 001e65.ffffffff.0 001e67.ffffffff.0 001e79.ffffffff.0 001e7b.ffffffff.0 001ea5.ffffffff.0 001ea7.ffffffff.0 001ea9.ffffffff.0 001eab.ffffffff.0 001eaf.ffffffff.0 001eb1.ffffffff.0 001eb3.ffffffff.0 001eb5.ffffffff.0 001ebf.ffffffff.0 001ec1.ffffffff.0 001ec3.ffffffff.0 001ec5.ffffffff.0 001ed1.ffffffff.0 001ed3.ffffffff.0 001ed5.ffffffff.0 001ed7.ffffffff.0
GlifName: small.abv.abv
Width: 660
VWidth: 0
Flags: W
HStem: 0 21G<30 630> 580 20G<30 630> 660 180<30 630> 900 180<30 630>
VStem: 30 600<0 600 660 840 900 1080>
LayerCount: 4
Layer: 2
SplineSet
30 900 m 257
 30 1080 l 257
 630 1080 l 261
 630 900 l 257
 30 900 l 257
30 660 m 257
 30 840 l 257
 630 840 l 257
 630 660 l 257
 30 660 l 257
30 0 m 257
 30 600 l 257
 630 600 l 257
 630 0 l 257
 30 0 l 257
EndSplineSet
Layer: 3
SplineSet
113 900 m 257
 141 1080 l 257
 741 1080 l 257
 713 900 l 257
 113 900 l 257
75 660 m 257
 103 840 l 257
 703 840 l 257
 675 660 l 257
 75 660 l 257
-30 0 m 257
 65 600 l 257
 665 600 l 257
 570 0 l 257
 -30 0 l 257
EndSplineSet
EndChar

StartChar: small.desc
Encoding: 14 103 14
AltUni2: 000070.ffffffff.0 000071.ffffffff.0 000079.ffffffff.0 0000b5.ffffffff.0 00014b.ffffffff.0 00018d.ffffffff.0 000192.ffffffff.0 00019e.ffffffff.0 0001a3.ffffffff.0 0001a5.ffffffff.0 0001aa.ffffffff.0 0001ab.ffffffff.0 0001b4.ffffffff.0 0001b9.ffffffff.0 0001ba.ffffffff.0 0001bd.ffffffff.0 0001bf.ffffffff.0 0001c9.ffffffff.0 0001e5.ffffffff.0 00021d.ffffffff.0 000225.ffffffff.0 000237.ffffffff.0 000239.ffffffff.0 00023f.ffffffff.0 000240.ffffffff.0 000249.ffffffff.0 00024b.ffffffff.0 00024f.ffffffff.0 000256.ffffffff.0 00025f.ffffffff.0 000260.ffffffff.0 000261.ffffffff.0 000263.ffffffff.0 000265.ffffffff.0 000267.ffffffff.0 00026d.ffffffff.0 00026e.ffffffff.0 000270.ffffffff.0 000271.ffffffff.0 000272.ffffffff.0 000273.ffffffff.0 000278.ffffffff.0 00027b.ffffffff.0 00027c.ffffffff.0 00027d.ffffffff.0 000282.ffffffff.0 000283.ffffffff.0 000284.ffffffff.0 000285.ffffffff.0 000287.ffffffff.0 000288.ffffffff.0 000290.ffffffff.0 000292.ffffffff.0 000293.ffffffff.0 00029d.ffffffff.0 00029e.ffffffff.0 0002a0.ffffffff.0 0002a4.ffffffff.0 0002a7.ffffffff.0 0002a9.ffffffff.0 0002ae.ffffffff.0 0002af.ffffffff.0 0003b3.ffffffff.0 000e0e.ffffffff.0 000e0f.ffffffff.0 000e24.ffffffff.0 000e26.ffffffff.0 000e45.ffffffff.0 000e46.ffffffff.0 000e87.ffffffff.0 000e8a.ffffffff.0 000e96.ffffffff.0 000eaf.ffffffff.0 000ebd.ffffffff.0 000ec6.ffffffff.0 001eff.ffffffff.0 00a78e.ffffffff.0 00a7ac.ffffffff.0
GlifName: small.desc
Width: 660
VWidth: 0
Flags: W
HStem: -240 21G<30 630> 580 20G<30 630>
VStem: 30 600<-240 600>
LayerCount: 4
Layer: 2
SplineSet
30 -240 m 257
 30 600 l 257
 630 600 l 257
 630 -240 l 257
 30 -240 l 257
EndSplineSet
Layer: 3
SplineSet
-68 -240 m 257
 65 600 l 257
 665 600 l 257
 532 -240 l 257
 -68 -240 l 257
EndSplineSet
EndChar

StartChar: small.desc.abv
Encoding: 15 106 15
AltUni2: 0000a1.ffffffff.0 0000bf.ffffffff.0 000133.ffffffff.0 000135.ffffffff.0 0001c6.ffffffff.0 0001c9.ffffffff.0 0001cc.ffffffff.0 0001ef.ffffffff.0 0001f0.ffffffff.0 000233.ffffffff.0 001e21.ffffffff.0 001e55.ffffffff.0 001e57.ffffffff.0 001e99.ffffffff.0 001ef3.ffffffff.0 001ef7.ffffffff.0 001ef9.ffffffff.0
GlifName: small.desc.abv
Width: 660
VWidth: 0
Flags: W
HStem: -240 21G<30 630> 580 20G<30 630> 660 180<30 630>
VStem: 30 600<-240 600 660 840>
LayerCount: 4
Layer: 2
SplineSet
30 660 m 257
 30 840 l 257
 630 840 l 257
 630 660 l 257
 30 660 l 257
30 -240 m 257
 30 600 l 257
 630 600 l 257
 630 -240 l 257
 30 -240 l 257
EndSplineSet
Layer: 3
SplineSet
75 660 m 257
 103 840 l 257
 703 840 l 257
 675 660 l 257
 75 660 l 257
-68 -240 m 257
 65 600 l 257
 665 600 l 257
 532 -240 l 257
 -68 -240 l 257
EndSplineSet
EndChar

StartChar: small.asc
Encoding: 16 98 16
AltUni2: 000064.ffffffff.0 000066.ffffffff.0 000068.ffffffff.0 00006b.ffffffff.0 00006c.ffffffff.0 0000df.ffffffff.0 0000f0.ffffffff.0 00010f.ffffffff.0 000111.ffffffff.0 000127.ffffffff.0 00013e.ffffffff.0 000140.ffffffff.0 000142.ffffffff.0 00017f.ffffffff.0 000180.ffffffff.0 000183.ffffffff.0 000184.ffffffff.0 000185.ffffffff.0 000188.ffffffff.0 00018b.ffffffff.0 00018c.ffffffff.0 000195.ffffffff.0 000196.ffffffff.0 000197.ffffffff.0 000199.ffffffff.0 00019a.ffffffff.0 00019b.ffffffff.0 0001a6.ffffffff.0 0001ad.ffffffff.0 0001be.ffffffff.0 0001c0.ffffffff.0 0001c1.ffffffff.0 0001c2.ffffffff.0 0001f3.ffffffff.0 000221.ffffffff.0 000223.ffffffff.0 000234.ffffffff.0 000238.ffffffff.0 000253.ffffffff.0 000257.ffffffff.0 000266.ffffffff.0 00026b.ffffffff.0 00026c.ffffffff.0 00027a.ffffffff.0 000286.ffffffff.0 00028e.ffffffff.0 000294.ffffffff.0 000295.ffffffff.0 000296.ffffffff.0 00029b.ffffffff.0 0002a1.ffffffff.0 0002a2.ffffffff.0 0002a3.ffffffff.0 0002a5.ffffffff.0 0002aa.ffffffff.0 0002ab.ffffffff.0 000e1b.ffffffff.0 000e1d.ffffffff.0 000e1f.ffffffff.0 000e42.ffffffff.0 000e43.ffffffff.0 000e44.ffffffff.0 000e9b.ffffffff.0 000e9d.ffffffff.0 000e9f.ffffffff.0 000ea2.ffffffff.0 000ec2.ffffffff.0 000ec3.ffffffff.0 000ec4.ffffffff.0 001e9c.ffffffff.0 001e9d.ffffffff.0 001e9f.ffffffff.0 001efb.ffffffff.0 001efd.ffffffff.0 00fb01.ffffffff.0 00fb02.ffffffff.0
GlifName: small.asc
Width: 660
VWidth: 0
Flags: W
HStem: 0 21G<30 630> 820 20G<30 630>
VStem: 30 600<0 840>
LayerCount: 4
Layer: 2
SplineSet
30 0 m 257
 30 840 l 257
 630 840 l 257
 630 0 l 257
 30 0 l 257
EndSplineSet
Layer: 3
SplineSet
-30 0 m 257
 103 840 l 257
 703 840 l 257
 570 0 l 257
 -30 0 l 257
EndSplineSet
EndChar

StartChar: small.asc.blw
Encoding: 17 311 17
AltUni2: 00013a.ffffffff.0 00013c.ffffffff.0 001e33.ffffffff.0 001e35.ffffffff.0 001e37.ffffffff.0 001e3b.ffffffff.0 001e3d.ffffffff.0 001e96.ffffffff.0
GlifName: small.asc.blw
Width: 660
VWidth: 0
Flags: W
HStem: -240 180<30 630> 0 21G<30 630> 820 20G<30 630>
VStem: 30 600<-240 -60 0 840>
LayerCount: 4
Layer: 2
SplineSet
30 -240 m 257
 30 -60 l 257
 630 -60 l 257
 630 -240 l 257
 30 -240 l 257
30 0 m 257
 30 840 l 257
 630 840 l 257
 630 0 l 257
 30 0 l 257
EndSplineSet
Layer: 3
SplineSet
-68 -240 m 257
 -40 -60 l 257
 560 -60 l 257
 532 -240 l 257
 -68 -240 l 257
-30 0 m 257
 103 840 l 257
 703 840 l 257
 570 0 l 257
 -30 0 l 257
EndSplineSet
EndChar

StartChar: number
Encoding: 18 35 18
AltUni2: 000024.ffffffff.0 000025.ffffffff.0 000026.ffffffff.0 00002f.ffffffff.0 000030.ffffffff.0 000031.ffffffff.0 000032.ffffffff.0 000033.ffffffff.0 000034.ffffffff.0 000035.ffffffff.0 000036.ffffffff.0 000037.ffffffff.0 000038.ffffffff.0 000039.ffffffff.0 000040.ffffffff.0 00005c.ffffffff.0 00007c.ffffffff.0 0000a2.ffffffff.0 0000a3.ffffffff.0 0000a4.ffffffff.0 0000a5.ffffffff.0 0000a6.ffffffff.0 0000bc.ffffffff.0 0000bd.ffffffff.0 0000be.ffffffff.0 002030.ffffffff.0 0020a1.ffffffff.0 0020a2.ffffffff.0 0020a3.ffffffff.0 0020a4.ffffffff.0 0020a5.ffffffff.0 0020a6.ffffffff.0 0020a7.ffffffff.0 0020a8.ffffffff.0 0020a9.ffffffff.0 0020aa.ffffffff.0 0020ab.ffffffff.0 0020ac.ffffffff.0 0020ad.ffffffff.0 0020ae.ffffffff.0 0020af.ffffffff.0 0020b0.ffffffff.0 0020b1.ffffffff.0 0020b2.ffffffff.0 0020b3.ffffffff.0 0020b4.ffffffff.0 0020b5.ffffffff.0 0020b6.ffffffff.0 0020b7.ffffffff.0 0020b8.ffffffff.0 0020b9.ffffffff.0 0020ba.ffffffff.0 0020bb.ffffffff.0 0020bc.ffffffff.0 0020bd.ffffffff.0 0020be.ffffffff.0 0020bf.ffffffff.0 002105.ffffffff.0 002113.ffffffff.0 002117.ffffffff.0 00211e.ffffffff.0 002120.ffffffff.0 002122.ffffffff.0 002126.ffffffff.0 00212e.ffffffff.0 002153.ffffffff.0 002154.ffffffff.0 002155.ffffffff.0 002156.ffffffff.0 002157.ffffffff.0 002158.ffffffff.0 002159.ffffffff.0 00215a.ffffffff.0 00215b.ffffffff.0 00215c.ffffffff.0 00215d.ffffffff.0 00215e.ffffffff.0 002190.ffffffff.0 002191.ffffffff.0 002192.ffffffff.0 002193.ffffffff.0 002194.ffffffff.0 002195.ffffffff.0 0021a8.ffffffff.0 002202.ffffffff.0 002206.ffffffff.0 00220f.ffffffff.0 002211.ffffffff.0 002215.ffffffff.0 00221a.ffffffff.0 00221e.ffffffff.0 00221f.ffffffff.0 002229.ffffffff.0 002302.ffffffff.0 002310.ffffffff.0 0025a0.ffffffff.0 0025a1.ffffffff.0 0025aa.ffffffff.0 0025ab.ffffffff.0 0025b2.ffffffff.0 0025b3.ffffffff.0 0025b6.ffffffff.0 0025b7.ffffffff.0 0025bc.ffffffff.0 0025bd.ffffffff.0 0025c0.ffffffff.0 0025c1.ffffffff.0 0025c9.ffffffff.0 0025ca.ffffffff.0 0025cb.ffffffff.0 0025cc.ffffffff.0 0025cf.ffffffff.0 0025e6.ffffffff.0 002610.ffffffff.0 002611.ffffffff.0 00263a.ffffffff.0 00263b.ffffffff.0 00263c.ffffffff.0 002640.ffffffff.0 002642.ffffffff.0 002660.ffffffff.0 002663.ffffffff.0 002665.ffffffff.0 002666.ffffffff.0 00266a.ffffffff.0 00266b.ffffffff.0 00266c.ffffffff.0 00267e.ffffffff.0 002713.ffffffff.0 002752.ffffffff.0 0027e8.ffffffff.0 0027e9.ffffffff.0
GlifName: number
Width: 660
VWidth: 0
Flags: W
HStem: 0 21G<30 630> 820 20G<30 630>
VStem: 30 600<0 840>
LayerCount: 4
Layer: 2
SplineSet
30 0 m 257
 30 840 l 257
 630 840 l 257
 630 0 l 257
 30 0 l 257
EndSplineSet
Layer: 3
SplineSet
-30 0 m 257
 103 840 l 257
 703 840 l 257
 570 0 l 257
 -30 0 l 257
EndSplineSet
EndChar

StartChar: exclam
Encoding: 19 33 19
AltUni2: 00003f.ffffffff.0 0001c3.ffffffff.0 00203c.ffffffff.0
GlifName: exclam
Width: 660
VWidth: 0
Flags: W
HStem: 0 180<30 630> 240 600<30 630>
VStem: 30 600<0 180 240 840>
LayerCount: 4
Layer: 2
SplineSet
30 0 m 257
 30 180 l 257
 630 180 l 257
 630 0 l 257
 30 0 l 257
30 240 m 257
 30 840 l 257
 630 840 l 257
 630 240 l 257
 30 240 l 257
EndSplineSet
Layer: 3
SplineSet
-30 0 m 257
 -1 180 l 257
 599 180 l 257
 570 0 l 257
 -30 0 l 257
8 240 m 257
 103 840 l 257
 703 840 l 257
 608 240 l 257
 8 240 l 257
EndSplineSet
EndChar

StartChar: mod.abv
Encoding: 20 34 20
AltUni2: 000027.ffffffff.0 00002a.ffffffff.0 00002d.ffffffff.0 00005e.ffffffff.0 000060.ffffffff.0 0000a8.ffffffff.0 0000aa.ffffffff.0 0000ae.ffffffff.0 0000af.ffffffff.0 0000b0.ffffffff.0 0000b2.ffffffff.0 0000b3.ffffffff.0 0000b4.ffffffff.0 0000b9.ffffffff.0 0000ba.ffffffff.0 0002b0.ffffffff.0 0002b1.ffffffff.0 0002b2.ffffffff.0 0002b3.ffffffff.0 0002b4.ffffffff.0 0002b5.ffffffff.0 0002b6.ffffffff.0 0002b7.ffffffff.0 0002b8.ffffffff.0 0002b9.ffffffff.0 0002ba.ffffffff.0 0002bb.ffffffff.0 0002bc.ffffffff.0 0002bd.ffffffff.0 0002be.ffffffff.0 0002bf.ffffffff.0 0002c0.ffffffff.0 0002c1.ffffffff.0 0002c2.ffffffff.0 0002c3.ffffffff.0 0002c4.ffffffff.0 0002c5.ffffffff.0 0002c6.ffffffff.0 0002c7.ffffffff.0 0002c8.ffffffff.0 0002c9.ffffffff.0 0002ca.ffffffff.0 0002cb.ffffffff.0 0002d8.ffffffff.0 0002d9.ffffffff.0 0002da.ffffffff.0 0002dc.ffffffff.0 0002dd.ffffffff.0 0002de.ffffffff.0 0002df.ffffffff.0 0002e0.ffffffff.0 0002e1.ffffffff.0 0002e2.ffffffff.0 0002e3.ffffffff.0 0002e4.ffffffff.0 0002ea.ffffffff.0 0002eb.ffffffff.0 0002ed.ffffffff.0 0002ee.ffffffff.0 0002f4.ffffffff.0 0002f5.ffffffff.0 0002f6.ffffffff.0 0002f9.ffffffff.0 0002fa.ffffffff.0 001d5a.ffffffff.0 001d5b.ffffffff.0 001d5d.ffffffff.0 001d5e.ffffffff.0 001d60.ffffffff.0 001d61.ffffffff.0 001d9c.ffffffff.0 001d9e.ffffffff.0 001da0.ffffffff.0 001da8.ffffffff.0 001dbb.ffffffff.0 001dbf.ffffffff.0 002018.ffffffff.0 002019.ffffffff.0 00201b.ffffffff.0 00201c.ffffffff.0 00201d.ffffffff.0 00201f.ffffffff.0 002032.ffffffff.0 002033.ffffffff.0 00203e.ffffffff.0 002070.ffffffff.0 002071.ffffffff.0 002074.ffffffff.0 002075.ffffffff.0 002076.ffffffff.0 002077.ffffffff.0 002078.ffffffff.0 002079.ffffffff.0 00207a.ffffffff.0 00207b.ffffffff.0 00207c.ffffffff.0 00207d.ffffffff.0 00207e.ffffffff.0 00207f.ffffffff.0 00a78b.ffffffff.0 00a78c.ffffffff.0
GlifName: mod.abv
Width: 660
VWidth: 0
Flags: W
HStem: 660 180<30 630>
LayerCount: 4
Layer: 2
SplineSet
30 660 m 257
 30 840 l 257
 630 840 l 257
 630 660 l 257
 30 660 l 257
EndSplineSet
Layer: 3
SplineSet
75 660 m 257
 103 840 l 257
 703 840 l 257
 675 660 l 257
 75 660 l 257
EndSplineSet
EndChar

StartChar: mod.mid
Encoding: 21 43 21
AltUni2: 00003a.ffffffff.0 00003b.ffffffff.0 00003c.ffffffff.0 00003d.ffffffff.0 00003e.ffffffff.0 00007e.ffffffff.0 0000ab.ffffffff.0 0000ac.ffffffff.0 0000ad.ffffffff.0 0000b1.ffffffff.0 0000b7.ffffffff.0 0000bb.ffffffff.0 0000d7.ffffffff.0 0000f7.ffffffff.0 0002d0.ffffffff.0 0002d1.ffffffff.0 0002d2.ffffffff.0 0002d3.ffffffff.0 0002d4.ffffffff.0 0002d5.ffffffff.0 0002d6.ffffffff.0 0002d7.ffffffff.0 0002e5.ffffffff.0 0002e6.ffffffff.0 0002e7.ffffffff.0 0002e8.ffffffff.0 0002e9.ffffffff.0 0002f8.ffffffff.0 002010.ffffffff.0 002011.ffffffff.0 002012.ffffffff.0 002013.ffffffff.0 002014.ffffffff.0 002015.ffffffff.0 002016.ffffffff.0 002017.ffffffff.0 002022.ffffffff.0 002039.ffffffff.0 00203a.ffffffff.0 002044.ffffffff.0 002212.ffffffff.0 002219.ffffffff.0 002248.ffffffff.0 002260.ffffffff.0 002261.ffffffff.0 002264.ffffffff.0 002265.ffffffff.0 00a789.ffffffff.0 00a78a.ffffffff.0
GlifName: mod.mid
Width: 660
VWidth: 0
Flags: W
HStem: 330 180<30 630>
LayerCount: 4
Layer: 2
SplineSet
30 330 m 257
 30 510 l 257
 630 510 l 257
 630 330 l 257
 30 330 l 257
EndSplineSet
Layer: 3
SplineSet
22 330 m 257
 51 510 l 257
 651 510 l 257
 622 330 l 257
 22 330 l 257
EndSplineSet
EndChar

StartChar: mod.blw
Encoding: 22 44 22
AltUni2: 00002e.ffffffff.0 00005f.ffffffff.0 0000b8.ffffffff.0 0002cc.ffffffff.0 0002cd.ffffffff.0 0002ce.ffffffff.0 0002cf.ffffffff.0 0002db.ffffffff.0 0002ec.ffffffff.0 0002ef.ffffffff.0 0002f0.ffffffff.0 0002f1.ffffffff.0 0002f2.ffffffff.0 0002f3.ffffffff.0 0002f7.ffffffff.0 0002fb.ffffffff.0 0002fc.ffffffff.0 0002fd.ffffffff.0 0002fe.ffffffff.0 0002ff.ffffffff.0 00201a.ffffffff.0 00201e.ffffffff.0 002026.ffffffff.0 002080.ffffffff.0 002081.ffffffff.0 002082.ffffffff.0 002083.ffffffff.0 002084.ffffffff.0 002085.ffffffff.0 002086.ffffffff.0 002087.ffffffff.0 002088.ffffffff.0 002089.ffffffff.0 00208a.ffffffff.0 00208b.ffffffff.0 00208c.ffffffff.0
GlifName: mod.blw
Width: 660
VWidth: 0
Flags: W
HStem: 0 180<30 630>
LayerCount: 4
Layer: 2
SplineSet
30 0 m 257
 30 180 l 257
 630 180 l 257
 630 0 l 257
 30 0 l 257
EndSplineSet
Layer: 3
SplineSet
-30 0 m 257
 -1 180 l 257
 599 180 l 257
 570 0 l 257
 -30 0 l 257
EndSplineSet
EndChar

StartChar: comb.blw
Encoding: 23 790 23
AltUni2: 000317.ffffffff.0 000318.ffffffff.0 000319.ffffffff.0 00031c.ffffffff.0 00031d.ffffffff.0 00031e.ffffffff.0 00031f.ffffffff.0 000320.ffffffff.0 000321.ffffffff.0 000322.ffffffff.0 000323.ffffffff.0 000324.ffffffff.0 000325.ffffffff.0 000326.ffffffff.0 000327.ffffffff.0 000328.ffffffff.0 000329.ffffffff.0 00032a.ffffffff.0 00032b.ffffffff.0 00032c.ffffffff.0 00032d.ffffffff.0 00032e.ffffffff.0 00032f.ffffffff.0 000330.ffffffff.0 000331.ffffffff.0 000332.ffffffff.0 000333.ffffffff.0 000339.ffffffff.0 00033a.ffffffff.0 00033b.ffffffff.0 00033c.ffffffff.0 000345.ffffffff.0 000347.ffffffff.0 000348.ffffffff.0 000349.ffffffff.0 00034d.ffffffff.0 00034e.ffffffff.0 000353.ffffffff.0 000354.ffffffff.0 000355.ffffffff.0 000356.ffffffff.0 000359.ffffffff.0 00035a.ffffffff.0 00035c.ffffffff.0 00035f.ffffffff.0 000362.ffffffff.0 000e38.ffffffff.0 000e39.ffffffff.0 000e3a.ffffffff.0 000eb8.ffffffff.0 000eb9.ffffffff.0 000ebc.ffffffff.0
GlifName: comb.blw
Width: 0
VWidth: 0
Flags: W
HStem: -240 180<-630 -30>
LayerCount: 4
Layer: 2
SplineSet
-630 -240 m 257
 -630 -60 l 257
 -30 -60 l 257
 -30 -240 l 257
 -630 -240 l 257
EndSplineSet
Layer: 3
SplineSet
-728 -240 m 257
 -700 -60 l 257
 -100 -60 l 257
 -128 -240 l 257
 -728 -240 l 257
EndSplineSet
EndChar

StartChar: comb.abv
Encoding: 24 768 24
AltUni2: 000301.ffffffff.0 000302.ffffffff.0 000303.ffffffff.0 000304.ffffffff.0 000305.ffffffff.0 000306.ffffffff.0 000307.ffffffff.0 000308.ffffffff.0 000309.ffffffff.0 00030a.ffffffff.0 00030b.ffffffff.0 00030c.ffffffff.0 00030d.ffffffff.0 00030e.ffffffff.0 00030f.ffffffff.0 000310.ffffffff.0 000311.ffffffff.0 000312.ffffffff.0 000313.ffffffff.0 000314.ffffffff.0 000315.ffffffff.0 00031a.ffffffff.0 00033d.ffffffff.0 00033e.ffffffff.0 00033f.ffffffff.0 000340.ffffffff.0 000341.ffffffff.0 000342.ffffffff.0 000343.ffffffff.0 000344.ffffffff.0 000346.ffffffff.0 00034a.ffffffff.0 00034b.ffffffff.0 00034c.ffffffff.0 000350.ffffffff.0 000351.ffffffff.0 000352.ffffffff.0 000357.ffffffff.0 00035b.ffffffff.0 00035d.ffffffff.0 00035e.ffffffff.0 000360.ffffffff.0 000361.ffffffff.0 000362.ffffffff.0 000363.ffffffff.0 000364.ffffffff.0 000365.ffffffff.0 000366.ffffffff.0 000367.ffffffff.0 000368.ffffffff.0 000369.ffffffff.0 00036a.ffffffff.0 00036b.ffffffff.0 00036c.ffffffff.0 00036d.ffffffff.0 00036e.ffffffff.0 00036f.ffffffff.0 000e31.ffffffff.0 000e34.ffffffff.0 000e35.ffffffff.0 000e36.ffffffff.0 000e37.ffffffff.0 000e47.ffffffff.0 000e48.ffffffff.0 000e49.ffffffff.0 000e4a.ffffffff.0 000e4b.ffffffff.0 000e4c.ffffffff.0 000e4d.ffffffff.0 000e4e.ffffffff.0 000eb1.ffffffff.0 000eb4.ffffffff.0 000eb5.ffffffff.0 000eb6.ffffffff.0 000eb7.ffffffff.0 000ebb.ffffffff.0 000ec8.ffffffff.0 000ec9.ffffffff.0 000eca.ffffffff.0 000ecb.ffffffff.0 000ecc.ffffffff.0
GlifName: comb.abv
Width: 0
VWidth: 0
Flags: W
HStem: 660 180<-630 -30>
LayerCount: 4
Layer: 2
SplineSet
-630 660 m 257
 -630 840 l 257
 -30 840 l 257
 -30 660 l 257
 -630 660 l 257
EndSplineSet
Layer: 3
SplineSet
-585 660 m 257
 -557 840 l 257
 43 840 l 257
 15 660 l 257
 -585 660 l 257
EndSplineSet
EndChar

StartChar: comb.abv.abv
Encoding: 25 7620 25
AltUni2: 001dc5.ffffffff.0 001dc6.ffffffff.0 001dc7.ffffffff.0
GlifName: comb.abv.abv
Width: 0
VWidth: 0
Flags: W
HStem: 660 180<-630 -30> 900 180<-630 -30>
LayerCount: 4
Layer: 2
SplineSet
-630 900 m 257
 -630 1080 l 257
 -30 1080 l 257
 -30 900 l 257
 -630 900 l 257
-630 660 m 257
 -630 840 l 257
 -30 840 l 257
 -30 660 l 257
 -630 660 l 257
EndSplineSet
Layer: 3
SplineSet
-547 900 m 257
 -519 1080 l 257
 81 1080 l 257
 53 900 l 257
 -547 900 l 257
-585 660 m 257
 -557 840 l 257
 43 840 l 257
 15 660 l 257
 -585 660 l 257
EndSplineSet
EndChar
